<?xml version="1.0" encoding="UTF-8"?>
<svg version="1.1" xmlns="http://www.w3.org/2000/svg" width="384" height="397">
<path d="M0 0 C13.60589667 5.84445733 21.12518202 17.72595409 26.48730469 30.94824219 C31.45564858 43.76718662 33.32581324 56.29965709 34.2734375 69.9765625 C34.72074219 69.20570312 35.16804688 68.43484375 35.62890625 67.640625 C36.23347656 66.63773437 36.83804687 65.63484375 37.4609375 64.6015625 C38.05261719 63.60382813 38.64429688 62.60609375 39.25390625 61.578125 C41.44961168 58.74961472 42.88091372 57.94920317 46.2734375 56.9765625 C54.38643599 63.58715386 57.17345862 75.01761396 58.2734375 84.9765625 C59.60070961 102.89665953 57.18008105 119.7811689 45.2734375 133.9765625 C54.51864755 128.14912957 60.20290338 119.48381398 65.2734375 109.9765625 C69.06564944 113.13673912 70.62166457 116.16158996 71.2734375 120.9765625 C72.39932571 140.28085402 66.7680979 157.25538091 54.1484375 172.0390625 C42.77793897 184.13089483 27.81541295 193.31124336 10.8828125 194.0859375 C9.01271115 194.09901513 7.14230321 194.04577975 5.2734375 193.9765625 C5.6034375 193.3165625 5.9334375 192.6565625 6.2734375 191.9765625 C8.27528853 191.36848143 10.30212338 190.84224595 12.3359375 190.3515625 C29.45728736 185.62662786 45.6146795 176.32053882 55.2734375 160.9765625 C60.46286593 151.09916181 64.19838 141.17748255 64.8984375 129.9765625 C64.97320312 128.8421875 65.04796875 127.7078125 65.125 126.5390625 C65.17398437 125.6934375 65.22296875 124.8478125 65.2734375 123.9765625 C64.58378906 124.77320313 63.89414062 125.56984375 63.18359375 126.390625 C52.21597218 138.853742 39.14797502 147.56591428 22.2734375 149.9765625 C19.2109375 149.6015625 19.2109375 149.6015625 17.2734375 148.9765625 C17.2734375 147.6565625 17.2734375 146.3365625 17.2734375 144.9765625 C18.24023438 144.50347656 19.20703125 144.03039062 20.203125 143.54296875 C35.25567106 135.98859453 45.15212704 126.92640814 51.43359375 111.04296875 C55.31961218 98.01125114 54.92105235 81.00474939 49.18359375 68.625 C48.03147086 66.50315392 48.03147086 66.50315392 46.2734375 63.9765625 C43.56610309 66.40951859 41.94751955 69.04303132 40.1640625 72.203125 C39.57367188 73.23566406 38.98328125 74.26820312 38.375 75.33203125 C37.1544686 77.4872734 35.93567687 79.6435018 34.71875 81.80078125 C24.07652715 100.39011857 24.07652715 100.39011857 15.2734375 103.9765625 C12.3359375 103.7265625 12.3359375 103.7265625 10.2734375 102.9765625 C10.85685435 99.20151231 12.52161971 97.29816151 15.0234375 94.4765625 C25.66973151 81.59397334 26.4854388 66.97764338 25.2734375 50.9765625 C23.24447472 36.84119603 17.6545561 19.31087914 6.2734375 9.9765625 C3.03310813 8.04281756 -0.26816037 6.47263986 -3.7265625 4.9765625 C-3.96020508 5.93433594 -4.19384766 6.89210938 -4.43457031 7.87890625 C-6.91554547 17.97079125 -9.61311458 27.98683608 -12.4765625 37.9765625 C-12.69310486 38.73258759 -12.90964722 39.48861267 -13.13275146 40.26754761 C-28.89154871 95.13084131 -28.89154871 95.13084131 -43.7890625 115.1015625 C-45.90574299 118.40109386 -45.84516838 120.4564905 -45.1640625 124.2890625 C-44.71114014 126.19133642 -44.23220241 128.08761756 -43.7265625 129.9765625 C-37.10631486 156.67390102 -42.95370715 191.45574711 -56.8203125 215.14453125 C-62.5004014 223.58318791 -69.70417901 231.84203547 -79.9140625 234.55859375 C-81.8515625 234.8515625 -81.8515625 234.8515625 -84.7265625 234.9765625 C-81.73427208 231.40041054 -78.81428533 228.03449319 -75.3515625 224.9140625 C-64.10863326 213.79550195 -56.73842356 194.91627012 -56.53125 179.28515625 C-56.54434116 177.32802844 -56.56789014 175.37094441 -56.6015625 173.4140625 C-56.61058594 172.40537109 -56.61960938 171.39667969 -56.62890625 170.35742188 C-56.65222894 167.89687793 -56.68495487 165.43685354 -56.7265625 162.9765625 C-57.02949219 163.84539062 -57.33242187 164.71421875 -57.64453125 165.609375 C-61.95302889 177.46105773 -61.95302889 177.46105773 -66.7265625 181.9765625 C-67.3865625 181.9765625 -68.0465625 181.9765625 -68.7265625 181.9765625 C-68.55640625 181.45191406 -68.38625 180.92726562 -68.2109375 180.38671875 C-67.33772172 177.59521513 -66.52877512 174.78934147 -65.7265625 171.9765625 C-65.36691406 170.75195312 -65.00726563 169.52734375 -64.63671875 168.265625 C-57.22061451 141.41534015 -63.78383008 116.49501551 -77.1015625 92.7265625 C-86.42892871 77.38961806 -95.67688306 68.39277674 -111.7265625 60.9765625 C-111.3965625 61.6365625 -111.0665625 62.2965625 -110.7265625 62.9765625 C-110.32402914 68.26566361 -110.17344333 73.18946405 -112.7265625 77.9765625 C-113.3865625 77.9765625 -114.0465625 77.9765625 -114.7265625 77.9765625 C-114.94570312 76.87699219 -115.16484375 75.77742188 -115.390625 74.64453125 C-118.3499343 60.29485937 -118.3499343 60.29485937 -126.41015625 48.3125 C-127.7265625 46.9765625 -127.7265625 46.9765625 -127.7265625 44.9765625 C-128.31566406 44.71101563 -128.90476563 44.44546875 -129.51171875 44.171875 C-131.78468604 42.94519424 -133.30449601 41.6324391 -135.1640625 39.8515625 C-142.90986319 32.94392681 -151.70235646 27.69499126 -161.7265625 24.9765625 C-163.22447618 29.47030353 -162.91097786 33.8944054 -162.9140625 38.6015625 C-162.92630859 39.56191406 -162.93855469 40.52226563 -162.95117188 41.51171875 C-162.96223935 46.94953901 -162.54198319 51.85750543 -161.14526367 57.12084961 C-160.55835534 59.72206841 -160.68587296 61.52350859 -161.7265625 63.9765625 C-164.57367272 66.36813509 -167.93444523 66.39191697 -171.56640625 66.296875 C-176.43383345 65.57512269 -180.4771257 63.3821789 -183.7265625 59.7265625 C-184.2215625 58.8603125 -184.2215625 58.8603125 -184.7265625 57.9765625 C-184.2315625 56.9865625 -184.2315625 56.9865625 -183.7265625 55.9765625 C-183.20707031 56.2653125 -182.68757813 56.5540625 -182.15234375 56.8515625 C-181.45496094 57.2228125 -180.75757813 57.5940625 -180.0390625 57.9765625 C-179.35457031 58.3478125 -178.67007813 58.7190625 -177.96484375 59.1015625 C-175.41124546 60.0998278 -173.44476979 60.12889636 -170.7265625 59.9765625 C-180.13887532 42.07231899 -180.13887532 42.07231899 -195.78515625 30.328125 C-197.89415428 29.97222541 -197.89415428 29.97222541 -200.7265625 29.9765625 C-204.3184171 34.66159024 -204.96231528 39.21847948 -204.7265625 44.9765625 C-203.43466141 54.23556537 -201.2284238 62.33508847 -195.7265625 69.9765625 C-195.7265625 70.9665625 -195.7265625 71.9565625 -195.7265625 72.9765625 C-199.31768244 72.72601925 -201.31685017 72.30223127 -204.1640625 70.0390625 C-206.7265625 66.9765625 -206.7265625 66.9765625 -208.14111328 64.703125 C-212.48219382 57.78506837 -216.89960951 54.46149607 -224.1640625 50.9140625 C-226.13607702 49.89972029 -228.10742755 48.8840862 -230.078125 47.8671875 C-231.04137695 47.37927734 -232.00462891 46.89136719 -232.99707031 46.38867188 C-236.09935664 44.78369655 -239.10996449 43.05677588 -242.12133789 41.2890625 C-250.64578764 36.28834137 -259.51370782 32.52259939 -268.7265625 28.9765625 C-266.4510554 31.84546692 -264.15612066 34.6744826 -261.7265625 37.4140625 C-238.43624752 63.93914344 -238.43624752 63.93914344 -229.9765625 76.9140625 C-229.32171875 77.91308594 -228.666875 78.91210938 -227.9921875 79.94140625 C-226.36973344 83.83229145 -226.65700317 85.925891 -227.7265625 89.9765625 C-229.28515625 92.92578125 -229.28515625 92.92578125 -231.1640625 95.6640625 C-233.22670858 98.70851088 -235.17149446 101.63980847 -236.7265625 104.9765625 C-229.04440018 109.2955662 -221.24013218 111.78069943 -212.7265625 113.9765625 C-212.7265625 114.6365625 -212.7265625 115.2965625 -212.7265625 115.9765625 C-214.36288142 117.02548488 -216.03142113 118.02562953 -217.7265625 118.9765625 C-218.94182562 119.96248232 -218.94182562 119.96248232 -218.77661133 121.85571289 C-218.74591553 122.67031982 -218.71521973 123.48492676 -218.68359375 124.32421875 C-218.06097388 147.3939234 -223.33569444 163.59916505 -238.13671875 181.35546875 C-239.92730736 183.80354714 -239.92730736 183.80354714 -239.74609375 186.34765625 C-238.33215619 189.99355654 -236.4452941 193.18160045 -234.3515625 196.4765625 C-233.91110596 197.17346191 -233.47064941 197.87036133 -233.0168457 198.58837891 C-229.90750241 203.39596511 -226.57492002 207.94998183 -222.9140625 212.3515625 C-222.47078613 212.89232422 -222.02750977 213.43308594 -221.57080078 213.99023438 C-218.87411581 217.11899607 -216.72367199 218.90840129 -212.7265625 219.9765625 C-210.27016389 219.26312153 -210.27016389 219.26312153 -207.91015625 217.75 C-206.99129639 217.21882568 -206.07243652 216.68765137 -205.12573242 216.14038086 C-204.14838135 215.5500708 -203.17103027 214.95976074 -202.1640625 214.3515625 C-201.14481689 213.7541626 -200.12557129 213.1567627 -199.07543945 212.54125977 C-195.9490761 210.70280768 -192.83799944 208.84013161 -189.7265625 206.9765625 C-187.95157267 205.93440436 -186.17559231 204.89393072 -184.3984375 203.85546875 C-156.09530059 187.22189071 -130.61762836 171.65764986 -120.97265625 138.375 C-120.52027788 136.58446745 -120.1159369 134.7818438 -119.7265625 132.9765625 C-119.0665625 133.3065625 -118.4065625 133.6365625 -117.7265625 133.9765625 C-115.10101401 145.78166023 -118.42340193 156.92037502 -124.7265625 166.9765625 C-128.53247924 172.27671906 -132.72715896 176.3614105 -138.06640625 180.05078125 C-149.5623591 188.06095632 -154.25808643 194.28442485 -158.03320312 207.72705078 C-161.62884797 219.39263936 -169.11624149 229.89244006 -176.3984375 239.53125 C-189.86184659 257.37406862 -200.20415838 276.44195982 -197.1015625 299.5390625 C-194.16276167 315.67164051 -186.80057963 330.33914713 -175.37036133 342.05761719 C-173.10778783 344.38037187 -171.76895173 345.84939482 -170.7265625 348.9765625 C-168.71641971 350.36286787 -167.47095038 351.06304036 -165.01171875 350.77734375 C-161.72084968 349.62413322 -158.91265419 347.75922454 -155.9765625 345.9140625 C-127.27366053 328.34493901 -93.35885372 314.28156465 -59.23046875 315.01953125 C-57.43685994 315.04191401 -55.64323938 315.06337001 -53.84960938 315.08398438 C-51.06729433 315.12101651 -48.28559812 315.16413629 -45.50366211 315.22338867 C-30.98980647 315.99240454 -30.98980647 315.99240454 -17.7265625 310.9765625 C-14.65977768 307.78745288 -13.80749689 304.52511783 -13.1640625 300.1640625 C-13.45320042 294.25408334 -16.58253961 288.12058539 -20.7265625 283.9765625 C-20.3515625 281.8515625 -20.3515625 281.8515625 -19.7265625 279.9765625 C-14.14988668 281.28872152 -9.98943806 282.70796447 -6.56640625 287.65234375 C-2.79065896 293.97232219 -1.73393338 299.76525962 -3.1171875 307.02734375 C-4.93035713 313.01312812 -8.49903895 316.67987364 -13.7265625 319.9765625 C-21.6034936 322.83205418 -29.27386207 323.3585428 -37.5703125 323.12890625 C-39.80989302 323.10068694 -42.04947646 323.07269964 -44.2890625 323.04492188 C-47.74627404 322.98322079 -51.20320723 322.914569 -54.66015625 322.83959961 C-69.55482902 322.54209004 -83.28312568 323.1547482 -97.7265625 326.9765625 C-98.78037109 327.25411377 -99.83417969 327.53166504 -100.91992188 327.81762695 C-103.38755691 328.52932235 -105.80395353 329.31283372 -108.2265625 330.1640625 C-109.51300659 330.60625122 -109.51300659 330.60625122 -110.82543945 331.05737305 C-127.42236836 336.91538041 -144.32625252 344.45064547 -158.87695312 354.45507812 C-159.92399414 355.16954102 -159.92399414 355.16954102 -160.9921875 355.8984375 C-161.92466309 356.56504395 -161.92466309 356.56504395 -162.87597656 357.24511719 C-164.7265625 357.9765625 -164.7265625 357.9765625 -166.81860352 357.2175293 C-184.60114575 345.65148167 -196.7669499 324.79824904 -201.9765625 304.6015625 C-206.1276593 282.47581356 -200.92805467 263.74431953 -188.7265625 244.9765625 C-186.5495652 241.9861816 -184.31175212 239.04959161 -182.0625 236.11328125 C-173.70179785 224.88645211 -167.45366723 213.16269674 -162.7265625 199.9765625 C-165.53734456 202.45272764 -167.017487 205.16522872 -168.7265625 208.4765625 C-170.435638 211.78789628 -171.91578044 214.50039736 -174.7265625 216.9765625 C-175.7165625 216.6465625 -176.7065625 216.3165625 -177.7265625 215.9765625 C-176.7365625 212.6765625 -175.7465625 209.3765625 -174.7265625 205.9765625 C-183.2377268 210.41661682 -191.65148839 215.00827155 -199.9765625 219.7890625 C-200.79809814 220.25675049 -201.61963379 220.72443848 -202.46606445 221.20629883 C-203.62368286 221.87568481 -203.62368286 221.87568481 -204.8046875 222.55859375 C-205.48950195 222.95280518 -206.17431641 223.3470166 -206.87988281 223.75317383 C-208.79050768 224.92207076 -208.79050768 224.92207076 -210.3203125 226.63598633 C-210.784375 227.07837646 -211.2484375 227.5207666 -211.7265625 227.9765625 C-218.53864731 227.60299656 -223.38428746 222.36885053 -227.921875 217.734375 C-235.65549453 208.83655468 -244.55085224 196.44107626 -247.7265625 184.9765625 C-247.43825401 180.98931747 -246.0706457 178.72628329 -243.6640625 175.6015625 C-234.06352812 162.3191737 -228.57271629 149.72670354 -228.2890625 133.2265625 C-228.26650391 132.32663574 -228.24394531 131.42670898 -228.22070312 130.49951172 C-228.24642392 123.56647022 -229.80393973 119.48370983 -234.2890625 114.1015625 C-235.85299533 112.74794577 -235.85299533 112.74794577 -238.7265625 111.9765625 C-238.5821875 112.79253906 -238.4378125 113.60851562 -238.2890625 114.44921875 C-235.80729253 130.28773685 -233.07348227 152.99360945 -239.7265625 167.9765625 C-240.3865625 167.9765625 -241.0465625 167.9765625 -241.7265625 167.9765625 C-243.1787281 165.07223131 -242.78293879 162.58422105 -242.71875 159.34375 C-242.6985494 157.97356574 -242.67938275 156.60336593 -242.66113281 155.2331543 C-242.65069946 154.51670746 -242.64026611 153.80026062 -242.6295166 153.06210327 C-242.43500069 137.68026911 -242.80949757 123.67705608 -249.0546875 109.30859375 C-249.88135588 106.43928548 -249.67953876 104.7932411 -248.7265625 101.9765625 C-243.64548142 97.9765625 -243.64548142 97.9765625 -240.7265625 97.9765625 C-241.25123415 92.54367221 -243.18810875 88.74222298 -245.8515625 84.1015625 C-246.28533203 83.33271729 -246.71910156 82.56387207 -247.16601562 81.77172852 C-251.61277733 73.99066434 -256.38918608 66.41552859 -261.16723633 58.83520508 C-265.0353482 52.6974195 -268.85069114 46.53672608 -272.5390625 40.2890625 C-273.14234375 39.27477173 -273.14234375 39.27477173 -273.7578125 38.23999023 C-279.22140993 28.91473172 -279.22140993 28.91473172 -278.7265625 22.9765625 C-277.7265625 21.9765625 -277.7265625 21.9765625 -274.9140625 21.6640625 C-257.83422804 22.04361438 -238.95244591 35.34716762 -224.52734375 43.33984375 C-220.96644613 45.31059853 -217.38694274 47.19796978 -213.7265625 48.9765625 C-214.2215625 46.0065625 -214.2215625 46.0065625 -214.7265625 42.9765625 C-214.0665625 42.6465625 -213.4065625 42.3165625 -212.7265625 41.9765625 C-212.0665625 42.3065625 -211.4065625 42.6365625 -210.7265625 42.9765625 C-210.8296875 42.0071875 -210.9328125 41.0378125 -211.0390625 40.0390625 C-211.04930201 35.01146292 -208.65155685 30.94839693 -205.7265625 26.9765625 C-202.51057587 24.085423 -200.20219018 23.43736794 -195.8046875 23.6328125 C-188.87733463 24.77869042 -184.27051603 30.05970093 -179.7265625 34.9765625 C-180.98461627 30.46853649 -182.63063415 27.4852813 -185.7265625 23.9765625 C-183.5390625 23.1640625 -183.5390625 23.1640625 -180.7265625 22.9765625 C-173.87076522 28.1602141 -171.45849102 35.89422941 -169.7265625 43.9765625 C-169.74976563 43.29851563 -169.77296875 42.62046875 -169.796875 41.921875 C-169.94184627 34.4454996 -169.95195203 26.96371875 -166.2265625 20.2890625 C-161.90953606 18.02262362 -158.32217805 18.64371337 -153.7265625 19.9765625 C-144.83385049 24.09732722 -137.15628925 29.60630942 -129.7265625 35.9765625 C-128.81003906 36.69392578 -128.81003906 36.69392578 -127.875 37.42578125 C-124.10791004 40.42741229 -121.42299679 43.67314342 -118.5390625 47.5390625 C-114.44585345 52.69038001 -110.81188642 54.71029936 -104.69140625 56.89453125 C-82.63397755 64.94447558 -61.24422018 88.07579954 -49.7265625 107.9765625 C-44.91760615 98.77614761 -40.68993281 89.42788472 -36.74829102 79.82348633 C-36.38405029 78.94974365 -36.01980957 78.07600098 -35.64453125 77.17578125 C-35.32250732 76.39033936 -35.0004834 75.60489746 -34.66870117 74.7956543 C-33.7265625 72.9765625 -33.7265625 72.9765625 -31.7265625 71.9765625 C-30.91663285 70.12180209 -30.91663285 70.12180209 -30.2890625 67.85546875 C-30.03382813 67.00146484 -29.77859375 66.14746094 -29.515625 65.26757812 C-29.25523437 64.36716797 -28.99484375 63.46675781 -28.7265625 62.5390625 C-28.46617187 61.67345703 -28.20578125 60.80785156 -27.9375 59.91601562 C-26.19032247 53.99061304 -24.83734846 48.05239834 -23.7265625 41.9765625 C-22.7365625 42.3065625 -21.7465625 42.6365625 -20.7265625 42.9765625 C-20.63117188 41.92597656 -20.53578125 40.87539063 -20.4375 39.79296875 C-19.67213088 33.69284259 -17.96921268 27.83319159 -16.3515625 21.9140625 C-16.04734375 20.76873047 -15.743125 19.62339844 -15.4296875 18.44335938 C-11.58848315 4.25224329 -11.58848315 4.25224329 -8.0390625 -0.0859375 C-5.08859531 -1.28207285 -3.00552394 -0.92735497 0 0 Z M-268.7265625 38.9765625 C-267.3783564 42.69917158 -265.6985173 45.70294643 -263.41796875 48.93359375 C-262.75829102 49.87420654 -262.09861328 50.81481934 -261.41894531 51.78393555 C-260.36465332 53.27147339 -260.36465332 53.27147339 -259.2890625 54.7890625 C-257.83673663 56.85381298 -256.38491622 58.9189191 -254.93359375 60.984375 C-254.21896973 61.99918945 -253.5043457 63.01400391 -252.76806641 64.05957031 C-250.94651769 66.66228068 -249.14711781 69.27761023 -247.36328125 71.90625 C-246.86948975 72.63352295 -246.37569824 73.3607959 -245.86694336 74.11010742 C-244.96746667 75.43886904 -244.07094095 76.76963511 -243.17797852 78.1027832 C-240.94466296 81.39070755 -238.64805407 84.276193 -235.7265625 86.9765625 C-237.05852537 70.993008 -251.28580389 58.12217158 -261.35400391 46.57470703 C-262.76966928 44.92637094 -264.14516794 43.24924981 -265.51953125 41.56640625 C-266.24785156 40.71175781 -266.97617187 39.85710938 -267.7265625 38.9765625 C-268.0565625 38.9765625 -268.3865625 38.9765625 -268.7265625 38.9765625 Z M-66.7265625 96.9765625 C-65.7265625 98.9765625 -65.7265625 98.9765625 -65.7265625 98.9765625 Z M-65.7265625 98.9765625 C-64.7265625 100.9765625 -64.7265625 100.9765625 -64.7265625 100.9765625 Z M-64.7265625 100.9765625 C-63.37487047 105.69562766 -61.94770876 110.37989839 -60.33203125 115.015625 C-55.90499473 127.76804833 -52.50024948 140.57732323 -50.7265625 153.9765625 C-50.3965625 153.9765625 -50.0665625 153.9765625 -49.7265625 153.9765625 C-48.81787842 135.90384576 -53.86606639 116.29087284 -63.7265625 100.9765625 C-64.0565625 100.9765625 -64.3865625 100.9765625 -64.7265625 100.9765625 Z " fill="#FF69B4" transform="translate(293.7265625,19.0234375)"/>
<path d="M0 0 C0.66 0 1.32 0 2 0 C3.02922844 9.68237125 0.52022113 17.14453739 -5.44140625 24.8671875 C-6.75 26.25 -6.75 26.25 -9 28 C-9.66 28 -10.32 28 -11 28 C-11 28.66 -11 29.32 -11 30 C-9.9275 30.061875 -8.855 30.12375 -7.75 30.1875 C4.95471188 31.84561055 16.69567772 39.28104451 24.4375 49.3125 C32.56083966 61.29775524 34.35317097 73.98343607 31.9375 88.0625 C30.12165846 96.60209443 26.82305415 104.18482352 23 112 C22.51402344 113.02351563 22.02804687 114.04703125 21.52734375 115.1015625 C16.70387663 124.64101001 10.30526495 133.26878338 0 137 C-0.99 136.67 -1.98 136.34 -3 136 C-2.41992188 135.59910156 -1.83984375 135.19820312 -1.2421875 134.78515625 C7.8862518 128.1421831 13.32381652 120.03925685 16 109 C16.68663004 102.63150637 16.14066038 97.02060731 14 91 C17.81300782 94.2870757 19.22972246 97.39727838 21 102 C21.81487171 99.75083381 22.62696918 97.50073022 23.4375 95.25 C23.66759766 94.61578125 23.89769531 93.9815625 24.13476562 93.328125 C28.11912564 82.24121018 28.8619721 69.98989165 24 59 C18.86231102 48.26046945 11.88511069 43.28349263 1 39 C1 39.66 1 40.32 1 41 C0.2575 40.835 -0.485 40.67 -1.25 40.5 C-15.67319522 38.5769073 -26.9349577 42.51914945 -39.90600586 48.35058594 C-56.16561429 55.59788172 -73.60479322 61.66459592 -91 55 C-91.33 54.34 -91.66 53.68 -92 53 C-90.906875 53.165 -89.81375 53.33 -88.6875 53.5 C-66.0410935 56.15263852 -47.01575942 46.11310615 -28 35 C-28.81082031 35.09539062 -29.62164062 35.19078125 -30.45703125 35.2890625 C-42.19971925 36.46469832 -51.87369271 35.41089958 -62 29 C-63.89641976 27.42819263 -65.3907489 25.87745961 -67 24 C-66.67 23.34 -66.34 22.68 -66 22 C-65.38125 22.5775 -64.7625 23.155 -64.125 23.75 C-54.54115708 30.65036691 -44.45731463 31.22148447 -33 30 C-23.20046313 28.0597135 -13.71662885 23.45066873 -8 15 C-8.53367187 15.2165625 -9.06734375 15.433125 -9.6171875 15.65625 C-16.8868259 18.37293148 -23.269048 19.18146813 -30.75 16.8125 C-36.58764315 13.55689132 -40.59313536 10.37111227 -43 4 C-42.67 3.34 -42.34 2.68 -42 2 C-41.53851563 2.39832031 -41.07703125 2.79664063 -40.6015625 3.20703125 C-34.01494258 8.5570328 -27.48173148 11.46552034 -18.875 10.9375 C-14.69301648 10.35136373 -11.34999304 9.01502736 -7.69140625 6.9375 C-6 6 -6 6 -3 5 C-1.8499169 3.03327085 -1.8499169 3.03327085 -1 1 C-0.67 0.67 -0.34 0.34 0 0 Z " fill="#FF69B4" transform="translate(323,228)"/>
<path d="M0 0 C0.66 0.33 1.32 0.66 2 1 C3.09272885 5.52701952 3.61661249 8.57409287 1.375 12.75 C-0.69320644 15.83466285 -2.75082614 18.11094543 -6 20 C-9.6875 20.375 -9.6875 20.375 -13 20 C-13.66 19.34 -14.32 18.68 -15 18 C-14.31292969 17.61328125 -13.62585938 17.2265625 -12.91796875 16.828125 C-12.01691406 16.30734375 -11.11585938 15.7865625 -10.1875 15.25 C-9.29417969 14.73953125 -8.40085937 14.2290625 -7.48046875 13.703125 C-3.56191204 11.01258842 -1.81239243 8.36488814 -0.8125 3.75 C-0.544375 2.5125 -0.27625 1.275 0 0 Z " fill="#FF69B4" transform="translate(300,326)"/>
<path d="M0 0 C2 1 2 1 2 1 Z " fill="#FF69B4" transform="translate(229,280)"/>
</svg>
